<svg width="78" height="17" viewBox="0 0 78 17" fill="none" xmlns="http://www.w3.org/2000/svg">
<path d="M3.52412e-05 -2.37226e-05H7.75104C9.26904 -2.37226e-05 10.534 0.344976 11.5 1.03498C12.466 1.72498 12.972 2.73698 12.972 4.11698C12.972 4.89898 12.765 5.56598 12.374 6.16398C11.96 6.76198 11.431 7.19898 10.741 7.49798C12.719 8.07298 13.731 9.40698 13.731 11.5C13.731 13.064 13.202 14.26 12.167 15.111C11.109 15.962 9.79804 16.376 8.18804 16.376H3.52412e-05V-2.37226e-05ZM3.49604 2.78298V6.64698H6.76204C8.55604 6.64698 9.47604 6.00298 9.47604 4.73798C9.47604 3.97898 9.22304 3.47298 8.74004 3.19698C8.23404 2.92098 7.59004 2.78298 6.76204 2.78298H3.49604ZM3.49604 9.08498L3.47304 13.547H7.08404C8.02704 13.547 8.76304 13.386 9.31504 13.087C9.86704 12.765 10.143 12.19 10.143 11.316C10.143 10.419 9.84404 9.82098 9.26904 9.52198C8.69404 9.22298 7.91204 9.08498 6.92304 9.08498H3.49604ZM27.0044 4.50798V16.376H23.8994V14.697C22.9794 16.054 21.6914 16.721 20.0354 16.721C18.7244 16.721 17.7124 16.376 16.9764 15.663C16.2404 14.95 15.8954 13.892 15.8954 12.489V4.50798H19.1844V11.293C19.1844 11.753 19.1844 12.098 19.2304 12.374C19.2764 12.65 19.3454 12.903 19.4834 13.179C19.5984 13.455 19.8054 13.662 20.0814 13.8C20.3574 13.938 20.7254 13.984 21.1854 13.984C22.8874 13.984 23.7614 12.88 23.7614 10.626V4.50798H27.0044ZM40.6842 16.376H37.3722V9.45298C37.3722 8.62498 37.2342 7.98098 36.9582 7.54398C36.6822 7.10698 36.1302 6.87698 35.3482 6.87698C33.6232 6.87698 32.7722 7.93498 32.7722 10.005V16.376H29.5292V4.50798H32.6342V6.16398C33.6002 4.85298 34.9112 4.18598 36.5672 4.18598C37.8322 4.18598 38.8442 4.55398 39.5802 5.28998C40.3162 6.02598 40.6842 7.08398 40.6842 8.44098V16.376ZM54.6629 4.50798L50.2009 8.90098L55.1919 16.376H51.2359L47.9699 11.109L46.6359 12.351V16.376H43.4389V-2.37226e-05H46.6359V8.76298L50.8219 4.50798H54.6629ZM67.502 12.696C67.134 13.984 66.444 14.973 65.455 15.663C64.466 16.376 63.293 16.721 61.913 16.721C60.096 16.721 58.624 16.169 57.52 15.019C56.416 13.892 55.864 12.397 55.864 10.511C55.864 8.67098 56.416 7.15298 57.543 5.95698C58.647 4.76098 60.073 4.16298 61.821 4.16298C63.615 4.16298 65.041 4.78398 66.099 6.00298C67.157 7.22198 67.686 8.87798 67.686 10.948V11.27H59.176C59.176 12.305 59.429 13.087 59.912 13.616C60.395 14.168 61.085 14.421 61.959 14.421C63.109 14.421 63.914 13.846 64.374 12.696H67.502ZM64.351 9.19998C64.282 8.41798 64.029 7.79698 63.592 7.29098C63.178 6.78498 62.58 6.53198 61.798 6.53198C61.085 6.53198 60.487 6.78498 60.004 7.24498C59.544 7.72798 59.245 8.37198 59.153 9.19998H64.351ZM77.259 4.30098V7.31398C76.799 7.22198 76.362 7.17598 75.994 7.17598C74.913 7.17598 74.131 7.52098 73.625 8.21098C73.119 8.90098 72.866 9.79798 72.866 10.948V16.376H69.6V4.50798H72.705V6.69298C73.487 5.05998 74.752 4.23198 76.546 4.23198C76.684 4.23198 76.937 4.25498 77.259 4.30098Z" fill="black"/>
</svg>
