<svg width="531" height="597" viewBox="0 0 531 597" fill="none" xmlns="http://www.w3.org/2000/svg">
<path d="M471 104L490.5 160L491.5 162.5V164L490 165L488 164.5L485.5 163C463.1 143.8 438.833 100 429.5 80.5L427 76.5V74.5H429.5L433 76.5L455 88.5L461 92L467.5 98L471 104Z" fill="#C39B53"/>
<path d="M260 386L307.5 596L306.5 596.5C292.9 594.9 256.5 566.167 240 552L215.5 479.5C189.5 430 186.833 356.5 187.5 322L183 301.5L201.5 315.5L260 386Z" fill="#C39B53"/>
<path d="M388 550.5L307 443.5H306.5C302.5 458.7 307.5 483.833 310.5 494.5L321 532L326.5 564L333 587L334 588.5L335.5 590.5L337.5 591H338.5L340.5 590.5L343 589L356 581.5C365 575.667 383.7 563.1 386.5 559.5C389.3 555.9 388.667 552 388 550.5Z" fill="#C39B53"/>
<path d="M161.5 437.5L190 531.5V537H187L183 536L175 531.5L168.5 525.5L161.5 519.5L155 515.5L113.5 488L111 485.5L109.5 479.5C94 414.5 79 390.833 64.5 354L61.5 347L60 340.5L60.5 333.5L100 227L182.5 178L185 177L187.5 177.5L188.5 179.5L188 182.5L186.5 187.5L144.5 294.5L142.5 301.5V308L157 408.5L161.5 437.5Z" fill="#C39B53"/>
<path d="M45 375.5L30.5 431.5L30 434L30.5 436.5L32.5 439L68.5 467L71.5 469H74.5L76 467L61 418L45 375.5Z" fill="#C39B53"/>
<path d="M74 208.5L15.5 381.5L13.5 385.5L12.5 387H11.5L10 384L9.5 380.5L0 273V269.5L1 266L65.5 127.5L68 123L72 121.5L234 77.5H236L237 78.5V80L233 85L76.5 204L74 208.5Z" fill="#C39B53"/>
<path d="M230 4L109 82L107.5 84.5H110.5L243 43.5L260.5 47C314 67.5 363.5 100 420 130L422.5 131.5H424.5L426.5 130.5L427 129L426 125.5L423.5 120.5L417 107.5L372.5 25L369 19.5L365.5 15L359.5 12.5L346 10.5L308.5 8L275.5 4L252 1L246.5 0.5L241 0L236 1L230 4Z" fill="#C39B53"/>
<path d="M485.5 395.5L501.5 411.5L503 412L504.5 411.5L505.5 410L529.5 334L530.5 329.5V327L529.5 325.5H528L525.5 327L489 356L487 359L482 379L481.5 385L482.5 389.5L484 393.5L485.5 395.5Z" fill="#C39B53"/>
<path d="M494.5 436L481 474L477 478.5L424.5 503H422.5L419.5 501L380.5 467.5L374.5 461.5L371.5 457.5L369.5 453.5L371.5 449.5L377.5 446L392 441L414 435L427 429L449 416L455.5 413.5L459.5 412.5L462.5 412H465H467.5L471 413C477.333 417 490.7 425.5 493.5 427.5C496.3 429.5 495.333 434 494.5 436Z" fill="#C39B53"/>
<path d="M488.5 258.5L520 295.5L523 299.5L523.5 300.5V301.5L522.5 302.5L421.5 277.5L422 275.5V274.5L421.5 273L419.5 270.5L371.5 215.5L359.5 203L355 200L347.5 197L339.5 196C339.5 196 301.5 194.5 293.5 194.5C285.5 194.5 282.479 193.91 276.5 197L279 200L329 234.5H332L336 232L339.5 231L345 230H351L356.5 231L362.5 234.5L391.5 256L415 275L420.5 278L521.5 303L519 304H515.5L428 303L424.5 304L422 306V309.5L423.5 314L428 319.5L453.5 338.5L469.5 353L472.5 359V364.5L469.5 375L463.5 385L453.5 393.5L391 422L387 423.5L383.5 425H380L376.5 423.5L318 387.5L315 385L312.5 382.5L311.5 380L312.5 376.5L337.5 327.5L339 325.5C339.167 325 339.5 323.9 339.5 323.5C339.5 323.1 339.167 321.667 339 321L338.5 319.5H336H333.5L330 321L295.5 337L291 338.5H287L284 334L281 329L277.5 325.5L273 321L215.5 273.5L207.5 267L204.5 263.5L203.5 260.5L206 256L231 209.5V206.5V203L230 200L215.5 171.5L213 166.5L210.5 162V160L213 157.5L264.5 113L272.5 110H283L294 111.5L419.5 147L434.5 153.5L442.5 158.5L483.5 201.5L482.5 203.5L474.5 207.5L466 211L459.5 212.5L453 213H449L446 214L445.5 216.5L446 219.5L450 224L458 230L474.5 245L488.5 258.5Z" fill="#C39B53"/>
<path d="M420.5 277.5H419.5L420 280.5L519.5 303H521.5L522.5 302.5V301.5L520 299.5L422 276L421.5 277L420.5 277.5Z" fill="#C39B53"/>
</svg>
